<svg xmlns="http://www.w3.org/2000/svg" viewBox="0 0 64 80"><path d="M27.015 7L32 9.848 36.985 7 32 4.152 27.015 7zM16 42.723l-5 2.857v5.697l5-2.857v-5.697zM14.985 41L10 38.152 5.015 41 10 43.848 14.985 41zM38 14.42V8.723l-5 2.857v5.697l5-2.857zM27.015 28L32 30.848 36.985 28 32 25.152 27.015 28zM16 22.42v-5.697l-5 2.857v5.697l5-2.857zm-12 0l5 2.857V19.58l-5-2.857v5.697zM5.015 15L10 17.848 14.985 15 10 12.152 5.015 15zM38 35.42v-5.697l-5 2.857v5.697l5-2.857zM9 45.58l-5-2.857v5.697l5 2.857V45.58zm44 0l-5-2.857v5.697l5 2.857V45.58zm7-23.16v-5.697l-5 2.857v5.697l5-2.857zm-12 0l5 2.857V19.58l-5-2.857v5.697zm12 20.303l-5 2.857v5.697l5-2.857v-5.697zM58.985 41L54 38.152 49.015 41 54 43.848 58.985 41zm-22 8L32 46.152 27.015 49 32 51.848 36.985 49zM31 53.58l-5-2.857v5.697l5 2.857V53.58zm-5-39.16l5 2.857V11.58l-5-2.857v5.697zm0 21l5 2.857V32.58l-5-2.857v5.697zM49.015 15L54 17.848 58.985 15 54 12.152 49.015 15zM38 50.723l-5 2.857v5.697l5-2.857v-5.697zM32 20l-1-.571v4.142L32 23l1 .571v-4.142L32 20zm-14-2.618v2.236l6-3.635V13.68l-6 3.702zm28 0v2.236l-6-3.635V13.68l6 3.702zM18 50.618v-2.236l6 3.635v2.303l-6-3.702zm28 0v-2.236l-6 3.635v2.303l6-3.702zM32 41l-1-.571v4.142L32 44l1 .571v-4.142L32 41zm22-13l-1-.571v9.142L54 36l1 .571v-9.142L54 28zm-44 0l1-.571v9.142L10 36l-1 .571v-9.142L10 28z"/><text y="79" font-size="5" font-weight="bold" font-family="'Helvetica Neue', Helvetica, Arial-Unicode, Arial, Sans-serif">Created by Sarote Impheng</text><text y="84" font-size="5" font-weight="bold" font-family="'Helvetica Neue', Helvetica, Arial-Unicode, Arial, Sans-serif">from the Noun Project</text></svg>